<?xml version="1.0" encoding="UTF-8" standalone="no"?>
<!-- Created with Inkscape (http://www.inkscape.org/) -->

<svg
   width="0.33333334in"
   height="0.33333334in"
   viewBox="0 0 8.4666668 8.4666673"
   version="1.1"
   id="svg1"
   xmlns="http://www.w3.org/2000/svg"
   xmlns:svg="http://www.w3.org/2000/svg">
  <defs
     id="defs1" />
  <g
     id="layer1"
     transform="translate(-32.948893,-76.44908)">
    <path
       id="path1"
       style="fill:#dddddd;fill-opacity:1;stroke-width:0.0900707"
       d="m 37.182242,76.44908 a 4.2333389,4.2333389 0 0 0 -4.233349,4.233349 4.2333389,4.2333389 0 0 0 4.233349,4.233318 4.2333389,4.2333389 0 0 0 4.233318,-4.233318 4.2333389,4.2333389 0 0 0 -4.233318,-4.233349 z m 0,0.397503 a 3.1402234,3.8358425 0 0 1 3.140216,3.835846 3.1402234,3.8358425 0 0 1 -3.140216,3.835845 3.1402234,3.8358425 0 0 1 -3.140247,-3.835845 3.1402234,3.8358425 0 0 1 3.140247,-3.835846 z m -3.1e-5,2.742713 a 1.0931157,1.0931157 0 0 0 -1.093102,1.093102 1.0931157,1.0931157 0 0 0 1.093102,1.093102 1.0931157,1.0931157 0 0 0 1.093132,-1.093102 1.0931157,1.0931157 0 0 0 -1.093132,-1.093102 z" />
  </g>
</svg>
